<svg width="123" height="24" viewBox="0 0 123 24" fill="none" xmlns="http://www.w3.org/2000/svg">
<g clip-path="url(#clip0_1099_27069)">
<path d="M99.6112 12.0304C99.411 12.125 99.4438 12.4445 99.6439 12.507C99.9786 12.6338 100.279 12.8248 100.581 13.0479C101.45 13.7797 101.65 14.7346 101.55 15.7842C101.383 17.8529 99.7785 18.9025 97.8723 19.0631C96.9355 19.1273 96.0333 19.1273 95.0966 19.1273C93.4249 19.1273 91.7516 19.1273 90.0472 19.1273C89.8798 19.1273 89.7798 19.0005 89.7798 18.8721V6.14364C89.7798 5.98477 89.9143 5.88843 90.0472 5.88843C91.1167 5.88843 94.9637 5.88843 96.97 5.88843C98.3415 5.88843 99.5111 6.2704 100.448 7.28955C101.385 8.37125 101.585 10.6631 100.18 11.6822C100.011 11.8394 99.8113 11.9358 99.6112 12.0304ZM93.1558 16.5177C93.1886 16.5177 93.2231 16.5498 93.2559 16.5498C94.3927 16.5498 95.5296 16.5498 96.7009 16.5177C96.9683 16.5177 97.2685 16.391 97.5031 16.2321C98.0724 15.8822 98.1724 15.3093 98.0379 14.7363C97.9033 14.0991 97.4686 13.6867 96.8337 13.6546C95.6296 13.5904 94.4255 13.6225 93.1886 13.5904C93.1886 13.5904 93.1558 13.6225 93.1213 13.6225C93.1558 14.5774 93.1558 15.5324 93.1558 16.5177ZM93.1558 8.7211V11.1076C93.1558 11.2665 93.2904 11.3628 93.4232 11.3628C94.3927 11.3628 95.3967 11.3628 96.3662 11.3628C96.5008 11.3628 96.6009 11.3307 96.7337 11.2986C97.5031 11.0755 97.9033 10.4704 97.8033 9.64392C97.736 8.97632 97.1339 8.46589 96.399 8.46589C95.8642 8.46589 95.2949 8.46589 94.7602 8.46589C94.3254 8.46589 93.8907 8.46589 93.456 8.46589C93.2904 8.43547 93.1558 8.56223 93.1558 8.7211Z" fill="#1C1C1E"/>
<path d="M75.3302 12.6676C75.4647 16.2963 72.0525 19.7966 67.5379 19.6378C63.7927 19.511 60.2131 16.5194 60.3804 12.3499C60.515 8.75325 63.7909 5.47607 68.1727 5.63494C72.0197 5.79382 75.432 8.78536 75.3302 12.6676ZM67.8398 8.65691C65.5316 8.65691 63.7927 10.3437 63.7599 12.5392C63.7599 14.8631 65.4315 16.5178 67.7725 16.582C69.9789 16.6462 71.8524 14.9594 71.8524 12.6355C71.8524 10.3133 70.0807 8.65691 67.8398 8.65691Z" fill="#1C1C1E"/>
<path d="M51.4875 19.6699C48.177 19.702 45.4341 17.6333 44.5319 15.1505C43.6297 12.6998 43.9298 10.4079 45.636 8.33919C46.9074 6.8113 48.579 5.95271 50.6181 5.72961C52.7244 5.50651 54.6307 5.98482 56.2695 7.2575C57.8411 8.43553 58.745 9.99384 58.9452 11.8716C59.1453 13.7814 58.7105 15.5003 57.4409 16.9961C56.3368 18.333 54.8998 19.1916 53.1264 19.511C52.5899 19.5736 52.0223 19.6057 51.4875 19.6699ZM51.4875 16.582C53.5939 16.6767 55.5346 14.9595 55.5346 12.6676C55.5018 10.3437 53.863 8.65694 51.522 8.65694C49.2138 8.65694 47.4749 10.3437 47.4422 12.5713C47.3732 14.9595 49.3467 16.6783 51.4875 16.582Z" fill="#1C1C1E"/>
<path d="M116.6 18.9685C116.633 19.0327 116.6 19.1273 116.498 19.1273C115.261 19.1273 114.024 19.1273 112.82 19.1273C112.753 19.1273 112.653 19.0327 112.62 18.9685C111.751 17.5995 110.847 16.2321 109.977 14.8631C109.91 14.7685 109.844 14.7042 109.777 14.5775C109.342 15.2451 108.942 15.8502 108.54 16.4873C108.005 17.3155 107.469 18.142 106.934 18.9381C106.9 19.0023 106.767 19.0969 106.7 19.0969C105.63 19.0969 103.656 19.129 102.987 19.129C102.887 19.129 102.853 19.0344 102.887 18.9702C103.254 18.3972 103.656 17.7921 104.024 17.2192C104.993 15.7555 105.963 14.2597 106.967 12.7961C107.101 12.573 107.101 12.3195 106.967 12.1285C105.73 10.2828 103.489 6.81298 102.954 6.01861C102.922 5.95439 102.954 5.85974 103.054 5.85974C103.589 5.85974 104.091 5.85974 104.559 5.85974C105.228 5.85974 105.896 5.89185 106.532 5.85974C106.8 5.85974 106.9 5.95439 107.001 6.14538C107.871 7.51439 108.74 8.85129 109.575 10.2186C109.61 10.2507 109.643 10.2828 109.677 10.3775C109.777 10.2186 109.91 10.0597 109.977 9.93129C110.814 8.65861 111.616 7.35383 112.453 6.08115C112.518 5.9865 112.653 5.89016 112.753 5.89016C113.957 5.89016 115.128 5.89016 116.365 5.89016C116.465 5.89016 116.533 5.98481 116.465 6.04904C115.931 6.87721 113.59 10.4417 112.418 12.2552C112.285 12.4462 112.285 12.573 112.418 12.764C113.722 14.5775 116.063 18.142 116.6 18.9685Z" fill="#1C1C1E"/>
<path d="M38.5786 19.1917H35.5355C35.3681 19.1917 35.2681 19.065 35.2681 18.9365C35.2681 17.6317 35.2681 11.7112 35.2681 9.57988C35.2681 9.07115 34.6988 8.46608 34.1312 8.43397C33.4291 8.36974 32.8943 8.59284 32.5924 9.19791C32.5597 9.26214 32.4579 9.29256 32.4251 9.29256C31.9904 9.29256 31.5229 9.29256 31.0881 9.29256C30.7535 9.29256 30.4861 9.03735 30.4861 8.7196C30.4861 7.89143 30.4861 7.03284 30.4861 6.20467C30.4861 5.88693 30.7535 5.63171 31.0554 5.63171C31.5229 5.63171 31.9576 5.63171 32.4268 5.63171C32.4941 5.63171 32.5942 5.69594 32.6269 5.75847C32.8943 6.26721 33.3291 6.52242 33.8983 6.52242C34.5004 6.52242 34.9351 6.26721 35.2353 5.75847C35.2681 5.69425 35.3354 5.63171 35.4026 5.63171C36.9742 5.63171 38.5803 5.69594 40.1173 6.07791C41.4543 6.42777 42.5256 7.1596 43.3605 8.17876C43.4606 8.2734 43.5279 8.40186 43.6279 8.4965C43.7953 8.65538 43.728 8.75171 43.5952 8.84636C43.4606 8.97312 43.3605 9.132 43.0932 8.97312C42.3238 8.43228 41.4543 8.30552 40.5176 8.43228C40.0501 8.4965 39.5808 8.62326 39.2134 8.9089C39.0133 9.06777 38.9132 9.22664 38.9132 9.48185C38.9132 11.6452 38.9132 17.5979 38.9132 18.9348C38.8459 19.0954 38.7114 19.1917 38.5786 19.1917Z" fill="#1C1C1E"/>
<path d="M77.2036 18.8738V6.14364C77.2036 5.98477 77.3382 5.88843 77.471 5.88843H80.3813C80.5486 5.88843 80.6486 6.01519 80.6486 6.14364V16.009C80.6486 16.1679 80.7832 16.2642 80.916 16.2642H87.2696C87.4369 16.2642 87.537 16.391 87.537 16.5194V18.8434C87.537 19.0022 87.4024 19.0986 87.2696 19.0986H77.4382C77.3382 19.1594 77.2036 19.0327 77.2036 18.8738Z" fill="#1C1C1E"/>
<path d="M123.003 8.33581C123.003 8.47947 122.931 8.55215 122.783 8.55215H122.641C122.494 8.55215 122.42 8.47947 122.42 8.33581V7.0682L122.008 7.72736C121.975 7.77975 121.941 7.82539 121.908 7.86426C121.875 7.90313 121.82 7.92342 121.747 7.92342H121.666C121.594 7.92342 121.539 7.90313 121.506 7.86426C121.473 7.82539 121.439 7.77975 121.406 7.72736L120.994 7.0682V8.33581C120.994 8.47947 120.921 8.55215 120.773 8.55215H120.631C120.485 8.55215 120.411 8.47947 120.411 8.33581V6.15384C120.411 6.01018 120.483 5.9375 120.631 5.9375H120.773C120.861 5.9375 120.926 5.96454 120.973 6.01694C121.019 6.06933 121.056 6.11496 121.083 6.15384L121.706 7.12736L122.327 6.15384C122.355 6.11496 122.391 6.06933 122.438 6.01694C122.484 5.96454 122.551 5.9375 122.638 5.9375H122.779C122.926 5.9375 123 6.01018 123 6.15384V8.33581H123.003ZM118.045 6.15384C118.045 6.01018 118.118 5.9375 118.266 5.9375H119.891C120.038 5.9375 120.112 6.01018 120.112 6.15384V6.27215C120.112 6.41581 120.038 6.48849 119.891 6.48849H119.37V8.3375C119.37 8.48116 119.298 8.55384 119.149 8.55384H119.01C118.863 8.55384 118.789 8.48116 118.789 8.3375V6.48849H118.266C118.12 6.48849 118.045 6.41581 118.045 6.27215V6.15384V6.15384Z" fill="#1C1C1E"/>
<path d="M19.1952 24.0558H14.5409L19.1952 19.6259V20.6738C19.8956 20.6738 20.5218 20.4118 20.998 19.9589C21.4482 19.5296 21.7484 18.911 21.7484 18.2434V7.47717H25.278V18.267C25.278 19.8625 24.6017 21.316 23.5011 22.3639C22.3988 23.4118 20.872 24.0558 19.1952 24.0558ZM3.55372 7.47886V18.2687C3.55372 18.9363 3.82973 19.5313 4.30414 19.9842C4.75439 20.4135 5.40475 20.6991 6.10687 20.6991H9.98663C10.5128 20.6991 10.9372 20.2935 10.9372 19.7949V15.0287V11.3138C10.4369 10.0513 8.61 10.0513 8.10972 11.3138H6.60888C6.25868 11.3138 5.95851 11.0282 5.95851 10.6952V8.09745C5.95851 7.7645 6.25868 7.47886 6.60888 7.47886H8.10799C8.60827 8.7414 10.4352 8.7414 10.9354 7.47886C16.7421 7.47886 17.9428 8.50309 19.6955 10.6225C19.7214 10.7172 19.2953 11.1701 19.1193 11.0518C18.0687 10.0986 15.3897 10.1222 14.6893 11.2191V19.7696V20.6755V21.0084C14.6893 22.6749 13.2626 24.0575 11.4857 24.0575H6.08099C4.40419 24.0575 2.87748 23.4152 1.77686 22.3656C0.676241 21.316 0 19.8642 0 18.2687V7.47886H3.55372Z" fill="#1C1C1E"/>
<path d="M6.081 0H19.1952C20.872 0 22.3988 0.642254 23.4994 1.69183C24.6 2.73972 25.2762 4.19324 25.2762 5.78873H21.7225C21.7225 5.12113 21.4465 4.5262 20.9721 4.07324C20.5218 3.64394 19.8715 3.35831 19.1694 3.35831H6.081C5.3806 3.35831 4.75439 3.62028 4.27826 4.07324C3.82801 4.50254 3.52784 5.12113 3.52784 5.78873H0C0 4.19324 0.676241 2.73972 1.77686 1.69183C2.87748 0.642254 4.40419 0 6.081 0Z" fill="#1C1C1E"/>
</g>
<defs>
<clipPath id="clip0_1099_27069">
<rect width="123" height="24" fill="white"/>
</clipPath>
</defs>
</svg>
